<svg width="30" height="30" viewBox="0 0 30 30" fill="none" xmlns="http://www.w3.org/2000/svg">
<mask id="mask0_35_1884" style="mask-type:alpha" maskUnits="userSpaceOnUse" x="0" y="0" width="30" height="30">
<rect width="30" height="30" fill="#D9D9D9"/>
</mask>
<g mask="url(#mask0_35_1884)">
<path d="M7.09514 21.7202C8.32099 20.8482 9.5799 20.1742 10.8719 19.6982C12.1638 19.2222 13.5409 18.9842 15.003 18.9842C16.4651 18.9842 17.8474 19.2248 19.1501 19.7058C20.4528 20.1868 21.7115 20.8591 22.9262 21.7227C23.7688 20.683 24.3821 19.6127 24.7661 18.512C25.1502 17.4112 25.3422 16.2405 25.3422 14.9999C25.3422 12.0881 24.3466 9.63652 22.3553 7.64508C20.364 5.65364 17.9126 4.65792 15.0011 4.65792C12.0896 4.65792 9.63793 5.65364 7.64608 7.64508C5.65424 9.63652 4.65833 12.0881 4.65833 14.9999C4.65833 16.2386 4.85262 17.4079 5.2412 18.5079C5.62981 19.6078 6.24779 20.6786 7.09514 21.7202ZM14.9964 16.0988C13.7666 16.0988 12.7327 15.6789 11.8948 14.839C11.0569 13.999 10.638 12.9653 10.638 11.7376C10.638 10.51 11.0582 9.47623 11.8987 8.63639C12.7392 7.79658 13.7743 7.37667 15.0041 7.37667C16.234 7.37667 17.2678 7.79787 18.1057 8.64027C18.9436 9.48268 19.3626 10.5177 19.3626 11.7454C19.3626 12.973 18.9423 14.0055 18.1019 14.8428C17.2614 15.6802 16.2262 16.0988 14.9964 16.0988ZM15.0069 27.7091C13.259 27.7091 11.6123 27.3759 10.067 26.7096C8.52158 26.0432 7.17244 25.1336 6.01955 23.9808C4.86665 22.828 3.95701 21.4804 3.29061 19.938C2.62421 18.3955 2.29102 16.7474 2.29102 14.9937C2.29102 13.2437 2.62454 11.5985 3.29158 10.0581C3.95862 8.51759 4.86808 7.17143 6.01995 6.01955C7.17183 4.8677 8.51907 3.95741 10.0617 3.28871C11.6043 2.62 13.2525 2.28564 15.0064 2.28564C16.7564 2.28564 18.4016 2.62 19.9421 3.28871C21.4825 3.95741 22.8287 4.8677 23.9806 6.01955C25.1324 7.17143 26.0427 8.51803 26.7114 10.0594C27.3801 11.6007 27.7145 13.2453 27.7145 14.9932C27.7145 16.7412 27.3801 18.388 26.7114 19.9337C26.0427 21.4795 25.1324 22.8283 23.9806 23.9802C22.8287 25.1321 21.4821 26.0415 19.9408 26.7085C18.3995 27.3756 16.7548 27.7091 15.0069 27.7091ZM15.0003 25.3418C16.114 25.3418 17.1853 25.1823 18.2143 24.8632C19.2432 24.5441 20.2473 24.0144 21.2265 23.2741C20.2407 22.581 19.2335 22.0553 18.2051 21.6971C17.1766 21.3389 16.1083 21.1597 15.0003 21.1597C13.8922 21.1597 12.8252 21.3389 11.7992 21.6971C10.7732 22.0553 9.76733 22.581 8.78152 23.2741C9.76068 24.0144 10.7635 24.5441 11.79 24.8632C12.8165 25.1823 13.8866 25.3418 15.0003 25.3418ZM15.0003 13.9183C15.636 13.9183 16.1582 13.715 16.5667 13.3083C16.9753 12.9016 17.1796 12.3793 17.1796 11.7415C17.1796 11.1037 16.9753 10.5801 16.5667 10.1709C16.1582 9.76174 15.636 9.55714 15.0003 9.55714C14.3645 9.55714 13.8424 9.76174 13.4338 10.1709C13.0252 10.5801 12.8209 11.1037 12.8209 11.7415C12.8209 12.3793 13.0252 12.9016 13.4338 13.3083C13.8424 13.715 14.3645 13.9183 15.0003 13.9183Z" fill="#626262"/>
</g>
</svg>
