<svg width="40" height="40" viewBox="0 0 40 40" fill="none" xmlns="http://www.w3.org/2000/svg">
<mask id="mask0_40_77" style="mask-type:alpha" maskUnits="userSpaceOnUse" x="0" y="0" width="40" height="40">
<rect width="40" height="40" fill="#D9D9D9"/>
</mask>
<g mask="url(#mask0_40_77)">
<path d="M9.79091 29.2439C11.3728 28.1285 12.9912 27.2589 14.6461 26.635C16.301 26.011 18.0858 25.699 20.0003 25.699C21.9148 25.699 23.7024 26.011 25.363 26.635C27.0236 27.2589 28.6449 28.1285 30.2267 29.2439C31.3799 27.9284 32.2536 26.5007 32.848 24.9609C33.4424 23.4211 33.7396 21.7676 33.7396 20.0003C33.7396 16.1477 32.4129 12.8947 29.7594 10.2412C27.1059 7.5877 23.8528 6.26095 20.0003 6.26095C16.1477 6.26095 12.8947 7.5877 10.2412 10.2412C7.5877 12.8947 6.26095 16.1477 6.26095 20.0003C6.26095 21.7676 6.56099 23.4211 7.16108 24.9609C7.76116 26.5007 8.63777 27.9284 9.79091 29.2439ZM19.9944 21.0472C18.4884 21.0472 17.2204 20.5303 16.1905 19.4965C15.1606 18.4627 14.6456 17.1928 14.6456 15.6867C14.6456 14.1807 15.1625 12.9127 16.1963 11.8828C17.2302 10.8529 18.5001 10.3379 20.0062 10.3379C21.5122 10.3379 22.7802 10.8548 23.8101 11.8887C24.84 12.9225 25.355 14.1924 25.355 15.6985C25.355 17.2045 24.838 18.4725 23.8042 19.5024C22.7704 20.5323 21.5005 21.0472 19.9944 21.0472ZM20.0133 35.8336C17.8173 35.8336 15.7572 35.4201 13.833 34.5932C11.9087 33.7662 10.2301 32.6355 8.7972 31.2011C7.36426 29.7666 6.23433 28.0902 5.40741 26.1718C4.58046 24.2534 4.16699 22.1956 4.16699 19.9982C4.16699 17.8009 4.58046 15.7437 5.40741 13.8267C6.23433 11.9097 7.36502 10.2339 8.79949 8.79949C10.2339 7.36502 11.9104 6.23433 13.8287 5.40741C15.7471 4.58047 17.805 4.16699 20.0023 4.16699C22.1997 4.16699 24.2569 4.58047 26.1739 5.40741C28.0909 6.23433 29.7666 7.36502 31.2011 8.79949C32.6355 10.2339 33.7662 11.91 34.5932 13.8276C35.4201 15.7452 35.8336 17.7984 35.8336 19.9873C35.8336 22.1833 35.4201 24.2434 34.5932 26.1676C33.7662 28.0918 32.6355 29.7704 31.2011 31.2034C29.7666 32.6363 28.0906 33.7662 26.173 34.5932C24.2554 35.4201 22.2021 35.8336 20.0133 35.8336ZM20.0003 33.7396C21.5345 33.7396 23.0364 33.4948 24.5062 33.0051C25.9759 32.5154 27.3351 31.7588 28.5837 30.7353C27.3351 29.8037 25.9873 29.0804 24.5404 28.5654C23.0934 28.0505 21.5801 27.793 20.0003 27.793C18.4205 27.793 16.9045 28.0478 15.4522 28.5574C13.9999 29.067 12.6584 29.793 11.4276 30.7353C12.6691 31.7588 14.0247 32.5154 15.4944 33.0051C16.9641 33.4948 18.4661 33.7396 20.0003 33.7396ZM20.0018 18.9533C20.9424 18.9533 21.7207 18.6448 22.3368 18.0277C22.9529 17.4106 23.261 16.6317 23.261 15.6911C23.261 14.7505 22.9525 13.9721 22.3354 13.356C21.7183 12.7399 20.9394 12.4319 19.9988 12.4319C19.0582 12.4319 18.2798 12.7404 17.6637 13.3575C17.0476 13.9746 16.7396 14.7535 16.7396 15.6941C16.7396 16.6347 17.0481 17.413 17.6652 18.0292C18.2823 18.6453 19.0612 18.9533 20.0018 18.9533Z" fill="white"/>
</g>
</svg>
