<svg width="36" height="36" viewBox="0 0 36 36" fill="none" xmlns="http://www.w3.org/2000/svg">
<mask id="mask0_45_44" style="mask-type:alpha" maskUnits="userSpaceOnUse" x="0" y="0" width="36" height="36">
<rect width="36" height="36" fill="#D9D9D9"/>
</mask>
<g mask="url(#mask0_45_44)">
<path d="M15 17.4423C13.5563 17.4423 12.3508 16.9603 11.3836 15.9963C10.4163 15.0323 9.93273 13.8252 9.93273 12.3751C9.93273 10.9313 10.4163 9.72583 11.3836 8.7586C12.3508 7.7914 13.5563 7.3078 15 7.3078C16.4437 7.3078 17.6492 7.7914 18.6164 8.7586C19.5836 9.72583 20.0673 10.9313 20.0673 12.3751C20.0673 13.8252 19.5836 15.0323 18.6164 15.9963C17.6492 16.9603 16.4437 17.4423 15 17.4423ZM3.75003 28.8903V25.8808C3.75003 25.1026 3.94587 24.413 4.33754 23.812C4.72922 23.2111 5.28979 22.7391 6.01927 22.3962C7.52567 21.7007 8.98592 21.1701 10.4 20.8044C11.8141 20.4387 13.3474 20.2558 15 20.2558H15.3952C15.5247 20.2558 15.6513 20.2578 15.775 20.2616C15.65 20.568 15.5524 20.8677 15.4822 21.1606C15.412 21.4536 15.3526 21.7802 15.3039 22.1404H15C13.4256 22.1404 11.9814 22.3043 10.6673 22.6322C9.35322 22.9601 8.07693 23.4423 6.83846 24.0788C6.40706 24.2987 6.09857 24.5638 5.91299 24.874C5.72739 25.1843 5.63459 25.5199 5.63459 25.8808V27.0058H15.3942C15.4891 27.3493 15.6085 27.6801 15.7524 27.9981C15.8963 28.316 16.0615 28.6134 16.248 28.8903H3.75003ZM24.651 30.072L24.3567 27.9701C23.9349 27.8644 23.524 27.7022 23.124 27.4836C22.724 27.265 22.3766 27.0031 22.0817 26.698L20.2366 27.247L19.4385 25.9096L21.0058 24.5596C20.9045 24.2353 20.8539 23.8609 20.8539 23.4365C20.8539 23.0122 20.9045 22.6346 21.0058 22.3038L19.4529 20.9346L20.251 19.5972L22.0817 20.1606C22.367 19.8491 22.712 19.5864 23.1168 19.3726C23.5216 19.1588 23.9349 18.9991 24.3567 18.8933L24.651 16.7914H26.3086L26.598 18.8933C27.0134 18.9991 27.4235 19.1601 27.8283 19.3765C28.2331 19.5928 28.5814 19.8561 28.873 20.1664L30.7038 19.5972L31.4922 20.9404L29.9393 22.3096C30.047 22.6396 30.1009 23.0169 30.1009 23.4417C30.1009 23.8665 30.047 24.2391 29.9393 24.5596L31.5066 25.9096L30.7182 27.247L28.873 26.698C28.5717 27.0031 28.2211 27.265 27.8211 27.4836C27.4211 27.7022 27.0134 27.8644 26.598 27.9701L26.3086 30.072H24.651ZM25.4666 26.2923C26.2959 26.2923 26.979 26.0218 27.5158 25.4809C28.0527 24.94 28.3211 24.2581 28.3211 23.4352C28.3211 22.606 28.0523 21.9229 27.5146 21.3861C26.9768 20.8492 26.2933 20.5808 25.4641 20.5808C24.6412 20.5808 23.9598 20.8496 23.4197 21.3873C22.8796 21.925 22.6096 22.6085 22.6096 23.4378C22.6096 24.2607 22.8801 24.9421 23.421 25.4822C23.9619 26.0222 24.6438 26.2923 25.4666 26.2923ZM15 15.5577C15.8993 15.5577 16.6546 15.2537 17.2659 14.6457C17.8771 14.0377 18.1827 13.2808 18.1827 12.3751C18.1827 11.4757 17.8771 10.7204 17.2659 10.1092C16.6546 9.49796 15.8993 9.19236 15 9.19236C14.1006 9.19236 13.3454 9.49796 12.7341 10.1092C12.1229 10.7204 11.8173 11.4757 11.8173 12.3751C11.8173 13.2808 12.1229 14.0377 12.7341 14.6457C13.3454 15.2537 14.1006 15.5577 15 15.5577Z" fill="#777777"/>
</g>
</svg>
