<svg width="36" height="36" viewBox="0 0 36 36" fill="none" xmlns="http://www.w3.org/2000/svg">
<mask id="mask0_45_49" style="mask-type:alpha" maskUnits="userSpaceOnUse" x="0" y="0" width="36" height="36">
<rect width="36" height="36" fill="#D9D9D9"/>
</mask>
<g mask="url(#mask0_45_49)">
<path d="M20.9134 14.4365V12.8289C21.7288 12.45 22.5822 12.1659 23.4735 11.9764C24.3649 11.787 25.2904 11.6923 26.25 11.6923C26.8519 11.6923 27.4365 11.7351 28.0038 11.8207C28.5711 11.9062 29.1403 12.0192 29.7115 12.1596V13.675C29.15 13.4788 28.5918 13.3365 28.037 13.2481C27.4822 13.1596 26.8865 13.1154 26.25 13.1154C25.2904 13.1154 24.361 13.2293 23.462 13.4572C22.563 13.6851 21.7134 14.0115 20.9134 14.4365ZM20.9134 22.6577V21.0058C21.7096 20.6321 22.5605 20.3518 23.4663 20.1649C24.3721 19.9781 25.3 19.8846 26.25 19.8846C26.8519 19.8846 27.4365 19.9274 28.0038 20.013C28.5711 20.0986 29.1403 20.2115 29.7115 20.3519V21.8673C29.15 21.6711 28.5918 21.5288 28.037 21.4404C27.4822 21.3519 26.8865 21.3077 26.25 21.3077C25.2904 21.3077 24.361 21.4226 23.462 21.6524C22.563 21.8822 21.7134 22.2173 20.9134 22.6577ZM20.9134 18.5615V16.925C21.7288 16.5462 22.5822 16.262 23.4735 16.0726C24.3649 15.8832 25.2904 15.7885 26.25 15.7885C26.8519 15.7885 27.4365 15.8313 28.0038 15.9168C28.5711 16.0024 29.1403 16.1154 29.7115 16.2558V17.7711C29.15 17.575 28.5918 17.4327 28.037 17.3442C27.4822 17.2557 26.8865 17.2115 26.25 17.2115C25.2904 17.2115 24.361 17.3303 23.462 17.5678C22.563 17.8053 21.7134 18.1365 20.9134 18.5615ZM9.5269 24.3942C10.8498 24.3942 12.137 24.5486 13.3883 24.8572C14.6397 25.1659 15.8763 25.6417 17.0981 26.2846V10.9346C15.9968 10.1737 14.7913 9.59535 13.4817 9.19953C12.172 8.80368 10.8537 8.60575 9.5269 8.60575C8.60005 8.60575 7.74061 8.69085 6.94859 8.86105C6.15659 9.03123 5.32437 9.27689 4.45195 9.59804C4.33655 9.63652 4.25481 9.69182 4.20674 9.76394C4.15864 9.83607 4.13459 9.91539 4.13459 10.0019V24.8884C4.13459 25.0166 4.18267 25.112 4.27885 25.1745C4.375 25.237 4.48077 25.2474 4.59617 25.2058C5.26027 24.9365 6.01635 24.734 6.8644 24.5981C7.71247 24.4622 8.59997 24.3942 9.5269 24.3942ZM18.9826 26.2846C20.2083 25.6417 21.4298 25.1659 22.6471 24.8572C23.8644 24.5486 25.1397 24.3942 26.4731 24.3942C27.4 24.3942 28.2942 24.4596 29.1557 24.5904C30.0173 24.7211 30.7666 24.8942 31.4038 25.1096C31.5192 25.1577 31.625 25.1505 31.7211 25.088C31.8173 25.0255 31.8654 24.9269 31.8654 24.7923V10.0019C31.8654 9.91539 31.8413 9.83847 31.7932 9.77114C31.7452 9.70384 31.6634 9.64614 31.548 9.59804C30.7128 9.24614 29.8913 8.99278 29.0837 8.83795C28.2761 8.68315 27.4059 8.60575 26.4731 8.60575C25.1397 8.60575 23.8317 8.80368 22.549 9.19953C21.2663 9.59535 20.0775 10.1737 18.9826 10.9346V26.2846ZM18.0356 29.0769C16.7856 28.1846 15.4368 27.4977 13.9894 27.0163C12.542 26.5349 11.0545 26.2942 9.5269 26.2942C8.6807 26.2942 7.84961 26.3838 7.03364 26.5629C6.21764 26.7421 5.41029 26.9865 4.61159 27.2961C4.04839 27.5486 3.514 27.4995 3.00842 27.1487C2.50285 26.7979 2.25006 26.3066 2.25006 25.6749V9.73848C2.25006 9.36798 2.34252 9.02519 2.52745 8.71012C2.71237 8.39504 2.98016 8.1609 3.33081 8.0077C4.29876 7.56733 5.30432 7.24282 6.3475 7.03417C7.39067 6.82552 8.45047 6.72119 9.5269 6.72119C11.05 6.72119 12.5316 6.93258 13.9717 7.35535C15.4117 7.7781 16.7679 8.41095 18.0404 9.2539C19.2961 8.41095 20.6388 7.7781 22.0682 7.35535C23.4977 6.93258 24.966 6.72119 26.4731 6.72119C27.546 6.72119 28.6024 6.82552 29.6422 7.03417C30.682 7.24282 31.6858 7.56733 32.6537 8.0077C33.0044 8.15963 33.2748 8.39344 33.4648 8.70914C33.6549 9.02487 33.75 9.36798 33.75 9.73848V25.6749C33.75 26.325 33.4804 26.8238 32.9413 27.1712C32.4022 27.5185 31.8506 27.5505 31.2865 27.2672C30.514 26.957 29.7248 26.7172 28.9187 26.548C28.1126 26.3788 27.2974 26.2942 26.4731 26.2942C24.9439 26.2942 23.4678 26.5374 22.0449 27.024C20.622 27.5105 19.2856 28.1948 18.0356 29.0769Z" fill="#777777"/>
</g>
</svg>
