<svg width="36" height="36" viewBox="0 0 36 36" fill="none" xmlns="http://www.w3.org/2000/svg">
<mask id="mask0_46_233" style="mask-type:alpha" maskUnits="userSpaceOnUse" x="0" y="0" width="36" height="36">
<rect width="36" height="36" fill="#D9D9D9"/>
</mask>
<g mask="url(#mask0_46_233)">
<path d="M10.7741 30.5913L9.43179 29.2491L12.5761 26.0913C9.81388 26.0945 7.43119 25.1833 5.42799 23.3577C3.42477 21.5321 2.42316 19.2462 2.42316 16.5C2.42316 13.7673 3.38902 11.4592 5.32074 9.57554C7.25247 7.69189 9.58948 6.75006 12.3318 6.75006H16.125V8.63462H12.3462C10.1276 8.63462 8.23322 9.39409 6.66302 10.913C5.09282 12.4319 4.30772 14.2942 4.30772 16.5C4.30772 18.6872 5.13386 20.5089 6.78613 21.9649C8.43838 23.421 10.3895 24.1715 12.6395 24.2164L9.43179 21.0086L10.7741 19.6587L16.2404 25.125L10.7741 30.5913ZM19.8751 29.25V19.6442H32.25V29.25H19.8751ZM19.8751 16.3558V6.75006H32.25V16.3558H19.8751ZM21.7596 14.4712H30.3654V8.63462H21.7596V14.4712Z" fill="#777777"/>
</g>
</svg>
