<svg width="36" height="36" viewBox="0 0 36 36" fill="none" xmlns="http://www.w3.org/2000/svg">
<mask id="mask0_45_54" style="mask-type:alpha" maskUnits="userSpaceOnUse" x="0" y="0" width="36" height="36">
<rect width="36" height="36" fill="#D9D9D9"/>
</mask>
<g mask="url(#mask0_45_54)">
<path d="M18.0404 24.8769L23.4404 19.4673L22.0981 18.1251L18.9827 21.2059V14.0981H17.0981V21.2059L13.9731 18.1251L12.6308 19.4673L18.0404 24.8769ZM9.09621 32.25C8.45151 32.25 7.89931 32.0201 7.43961 31.5604C6.97991 31.1007 6.75006 30.5485 6.75006 29.9038V12.302L15.302 3.75006H26.9038C27.5485 3.75006 28.1007 3.97991 28.5604 4.43961C29.0201 4.89931 29.25 5.45151 29.25 6.09621V29.9038C29.25 30.5485 29.0201 31.1007 28.5604 31.5604C28.1007 32.0201 27.5485 32.25 26.9038 32.25H9.09621ZM9.09621 30.3654H26.9038C27.0192 30.3654 27.125 30.3173 27.2212 30.2212C27.3173 30.125 27.3654 30.0192 27.3654 29.9038V6.09621C27.3654 5.98081 27.3173 5.87504 27.2212 5.77889C27.125 5.68271 27.0192 5.63462 26.9038 5.63462H16.1327L8.63462 13.1311V29.9038C8.63462 30.0192 8.68271 30.125 8.77889 30.2212C8.87504 30.3173 8.98081 30.3654 9.09621 30.3654ZM9.09621 30.3654H8.63462H27.3654H9.09621Z" fill="#777777"/>
</g>
</svg>
