<svg width="36" height="36" viewBox="0 0 36 36" fill="none" xmlns="http://www.w3.org/2000/svg">
<mask id="mask0_46_239" style="mask-type:alpha" maskUnits="userSpaceOnUse" x="0" y="0" width="36" height="36">
<rect width="36" height="36" fill="#D9D9D9"/>
</mask>
<g mask="url(#mask0_46_239)">
<path d="M7.59621 28.8654H21.3654V21.3654H28.8654V7.59621C28.8654 7.46159 28.8222 7.351 28.7356 7.26445C28.6491 7.1779 28.5385 7.13462 28.4038 7.13462H7.59621C7.46159 7.13462 7.351 7.1779 7.26445 7.26445C7.1779 7.351 7.13462 7.46159 7.13462 7.59621V28.4038C7.13462 28.5385 7.1779 28.6491 7.26445 28.7356C7.351 28.8222 7.46159 28.8654 7.59621 28.8654ZM7.59621 30.75C6.95359 30.75 6.40191 30.5196 5.94119 30.0589C5.48044 29.5981 5.25006 29.0465 5.25006 28.4038V7.59621C5.25006 6.95359 5.48044 6.40191 5.94119 5.94119C6.40191 5.48044 6.95359 5.25006 7.59621 5.25006H28.4038C29.0465 5.25006 29.5981 5.48044 30.0589 5.94119C30.5196 6.40191 30.75 6.95359 30.75 7.59621V21.9663L21.9663 30.75H7.59621ZM11.5289 20.2308V18.3462H17.8173V20.2308H11.5289ZM11.5289 14.2596V12.3751H24.4711V14.2596H11.5289Z" fill="#777777"/>
</g>
</svg>
